<svg xmlns="http://www.w3.org/2000/svg" width="768" height="128" viewBox="0 0 768 128">
<rect width="100%" height="100%" fill="none"/>
<g transform="translate(0,0)">
    <ellipse cx="64" cy="112" rx="20" ry="8" fill="#1d1f2a" opacity="0.4"/>
    <path d="M64 28 C38 28, 28 50, 32 72 C36 92, 48 102, 64 110 C80 102, 92 92, 96 72 C100 50, 90 28, 64 28 Z" fill="#5c2a6d"/>
    <circle cx="56" cy="58" r="4" fill="#fff"/>
    <circle cx="72" cy="58" r="4" fill="#fff"/>
    </g>
<g transform="translate(128,0)">
    <ellipse cx="64" cy="112" rx="20" ry="8" fill="#1d1f2a" opacity="0.4"/>
    <path d="M64 31 C38 31, 28 50, 32 72 C36 92, 48 102, 64 110 C80 102, 92 92, 96 72 C100 50, 90 31, 64 31 Z" fill="#5c2a6d"/>
    <circle cx="56" cy="58" r="4" fill="#fff"/>
    <circle cx="72" cy="58" r="4" fill="#fff"/>
    </g>
<g transform="translate(256,0)">
    <ellipse cx="64" cy="112" rx="20" ry="8" fill="#1d1f2a" opacity="0.4"/>
    <path d="M64 34 C38 34, 28 50, 32 72 C36 92, 48 102, 64 110 C80 102, 92 92, 96 72 C100 50, 90 34, 64 34 Z" fill="#5c2a6d"/>
    <circle cx="56" cy="58" r="4" fill="#fff"/>
    <circle cx="72" cy="58" r="4" fill="#fff"/>
    </g>
<g transform="translate(384,0)">
    <ellipse cx="64" cy="112" rx="20" ry="8" fill="#1d1f2a" opacity="0.4"/>
    <path d="M64 28 C38 28, 28 50, 32 72 C36 92, 48 102, 64 110 C80 102, 92 92, 96 72 C100 50, 90 28, 64 28 Z" fill="#5c2a6d"/>
    <circle cx="56" cy="58" r="4" fill="#fff"/>
    <circle cx="72" cy="58" r="4" fill="#fff"/>
    </g>
<g transform="translate(512,0)">
    <ellipse cx="64" cy="112" rx="20" ry="8" fill="#1d1f2a" opacity="0.4"/>
    <path d="M64 31 C38 31, 28 50, 32 72 C36 92, 48 102, 64 110 C80 102, 92 92, 96 72 C100 50, 90 31, 64 31 Z" fill="#5c2a6d"/>
    <circle cx="56" cy="58" r="4" fill="#fff"/>
    <circle cx="72" cy="58" r="4" fill="#fff"/>
    </g>
<g transform="translate(640,0)">
    <ellipse cx="64" cy="112" rx="20" ry="8" fill="#1d1f2a" opacity="0.4"/>
    <path d="M64 34 C38 34, 28 50, 32 72 C36 92, 48 102, 64 110 C80 102, 92 92, 96 72 C100 50, 90 34, 64 34 Z" fill="#5c2a6d"/>
    <circle cx="56" cy="58" r="4" fill="#fff"/>
    <circle cx="72" cy="58" r="4" fill="#fff"/>
    </g>
</svg>